<svg width="40" height="52" fill="none" xmlns="http://www.w3.org/2000/svg"><path d="M16.977 2.93452h.1366c.253 0 .5262.02543.7969.04832 1.1926.08411 2.3768.26267 3.5416.53401V.653528c-1.1993-.3009-2.4224-.495752-3.6555-.582326C17.3286.0356 16.8303.012715 16.3193 0h-.4276c-2.4749.009307-4.9391.327052-7.33616.945963C5.8253 1.62687 3.20466 2.69275.771576 4.11189V32.5086C3.1143 31.2357 5.60713 30.2643 8.19126 29.6173c2.04034-.5206 4.12624-.8408 6.22814-.9561h.0835c.3517-.0178.7033-.028 1.065-.0306v-2.909c-2.7312.0351-5.4486.3962-8.09508 1.0756-.97901.2543-1.92512.5289-2.81306.8341l-1.01189.3433V5.83344l.43259-.20852C7.38168 4.05951 10.9522 3.14863 14.5965 2.94215a.626712.626712 0 01.0911 0c.4022-.02034.807-.03052 1.2041-.03052H16.3471c.21.00509.4199.01018.6299.02289z" fill="#AFB1B8"/><path d="M24.1108 5.93259c-.6653 0-1.323-.02289-1.958-.07121-.7589-.05594-1.5381-.14748-2.2767-.27209-.4503-.07628-.893-.16783-1.3231-.267V33.3935c1.8207.4508 3.6903.6712 5.5654.6561 2.4747-.0101 4.9387-.3269 7.3362-.9435 2.7307-.6818 5.3521-1.7476 7.7865-3.1659V2.04956c-2.3425 1.27222-4.8342 2.2444-7.4172 2.89383-2.5207.64744-5.1114.97968-7.7131.9892zm11.2244.48569l1.0119-.34075V28.2263l-.4326.2085c-1.6593.7895-3.3921 1.4121-5.1733 1.8589-2.163.5596-4.3867.8475-6.6203.8569-.6678 0-1.3306-.0279-1.9732-.0839l-.6931-.061V8.22883l.807.05341c.5869.03814 1.194.05594 1.8543.05594 2.8355-.01008 5.659-.37222 8.4062-1.0782.9436-.2492 1.8822-.52892 2.8131-.8417zM2.73716 42.2124c-.14547-.1509-.32084-.2694-.51477-.3478-.19392-.0784-.40207-.115-.61095-.1074-.22262-.003-.4436.0385-.650142.1221-.189366.0754-.361501.1887-.505945.3331-.142872.1448-.254031.318-.326335.5086-.079308.1997-.118845.4131-.116367.6281v3.794c-.009048.2673.041968.5333.149254.7781.089558.1944.21885.3677.379458.5086a1.32911 1.32911 0 00.521127.2696c.18448.0518.3751.0783.56665.0788.2113.0021.42042-.0431.6122-.1322.18964-.083.36146-.2022.50594-.351.14089-.1474.25327-.3198.3314-.5086.08108-.1913.1224-.3972.12142-.6052v-.4246h-.99165v.3382a.881264.881264 0 01-.05818.3382c-.0323.0807-.08147.1536-.1442.2136-.06143.0496-.13188.0868-.20743.1093a.697258.697258 0 01-.20744.0356c-.08854.0103-.17821-.003-.25995-.0388-.08174-.0357-.15264-.0925-.20552-.1646-.09348-.1525-.139304-.3296-.131546-.5086v-3.5372c-.006152-.1961.035536-.3908.121426-.567.05148-.0801.12432-.144.2102-.1845.08588-.0405.18135-.0559.27551-.0444.08547-.003.17041.0148.24752.052.0771.0372.14408.0927.19518.1616.11097.1457.16899.3252.16443.5086v.328h.98153v-.3865c.002-.227-.03922-.4523-.12142-.6637-.07326-.1988-.18602-.3805-.3314-.534zM8.62889 42.1691c-.31621-.267-.7153-.4145-1.12826-.417-.20198.0008-.40228.037-.59196.1068-.19257.069-.37029.1743-.52365.3102-.16429.1477-.29537.3289-.38452.5315-.0999.2317-.14907.4824-.14419.7349v3.6389c-.00684.256.04239.5103.14419.7451.08975.1956.22099.3692.38452.5085.1516.1408.32963.2497.52365.3205.18968.0698.38998.1059.59196.1068.20203-.0004.40241-.0366.59196-.1068.19733-.0718.37933-.1805.5363-.3205.15818-.1419.28562-.315.3744-.5085.1018-.2348.15103-.4891.14419-.7451v-3.6389c.00488-.2525-.04429-.5032-.14419-.7349-.08827-.2005-.21557-.3812-.3744-.5315zm-.46294 4.9053c.00835.097-.00503.1946-.03918.2857a.652025.652025 0 01-.15814.2407c-.13098.1098-.29615.17-.46673.17-.17059 0-.33576-.0602-.46674-.17a.652025.652025 0 01-.15814-.2407.653935.653935 0 01-.03918-.2857v-3.6389a.653935.653935 0 01.03918-.2857c.03415-.0911.08819-.1734.15814-.2407.13098-.1098.29615-.17.46674-.17.17058 0 .33575.0602.46673.17.06995.0673.12399.1496.15814.2407.03415.0911.04753.1887.03918.2857v3.6389zM16.3673 48.6994v-6.8887h-.9537l-1.2522 3.6465h-.0177l-1.2623-3.6465h-.9436v6.8887h.984v-4.1907h.0177l.9639 2.9625h.4907l.9715-2.9625h.0177v4.1907h.984zM21.958 42.2937c-.1515-.17-.3428-.2994-.5565-.3764-.2303-.0749-.4714-.111-.7134-.1068h-1.4622v6.8888h.9815v-2.6904h.506c.3062.0139.6109-.0509.8854-.1882.2231-.1239.4092-.3057.5388-.5264.1136-.1832.1901-.3872.2252-.6001.0386-.2592.0564-.5212.0531-.7832.0095-.3308-.0228-.6615-.0962-.9841-.0654-.2384-.1899-.4563-.3617-.6332zm-.506 2.1004c-.0042.1247-.0353.2471-.091.3586-.0561.1059-.1449.1907-.253.2415-.1454.0651-.304.0947-.4629.0865h-.4478v-2.342h.5059c.1524-.0075.3043.0222.4428.0864.1014.0583.182.1473.2302.2543.0536.121.0828.2516.086.384v.4577c0 .1602.0101.3255 0 .473h-.0102zM26.6076 41.8107h-.8044l-1.5179 6.8887h.9816l.2884-1.48h1.3382l.2884 1.48h.9815l-1.5558-6.8887zm-.9056 4.4704l.4832-2.4971h.0177l.4806 2.4971h-.9815zM32.9497 45.9607h-.0177l-1.4825-4.15h-.9435v6.8887h.9815V44.557h.0202l1.5001 4.1424h.9234v-6.8887h-.9815v4.15zM38.9476 41.8107l-.7892 2.7387h-.0203l-.7892-2.7387h-1.0398l1.3484 3.9771v2.9116h.9815v-2.9116l1.3484-3.9771h-1.0398zM0 50.6445h.473058v1.3274h.321275v-1.3274h.470527v-.2721H0v.2721zM3.97672 50.3724l-.61979 1.5995h.34152l.13154-.3636h.63749l.13661.3636h.3491l-.63496-1.5995h-.34151zm-.0506.9663l.21756-.5925.21755.5925h-.43511zM7.90793 51.3821h.36934v.206c-.10786.0865-.24151.1339-.37946.1348-.06451.0036-.12895-.0084-.18793-.0349-.05897-.0266-.11077-.0669-.15105-.1177-.08481-.1218-.12666-.2686-.1189-.417 0-.356.15431-.534.46041-.534.08057-.0081.16134.0132.2277.0598.06635.0466.1139.1156.13405.1944l.31622-.061c-.0683-.3128-.29345-.4704-.67797-.4704-.20566-.0055-.40564.0682-.55907.206-.08058.0795-.14293.1758-.18269.2821a.784311.784311 0 00-.04751.3332c-.00932.2189.06386.4332.20491.6002a.77612.77612 0 00.27803.1839c.10482.0404.21709.0574.3291.05.25027.007.49341-.0842.67797-.2543v-.6306h-.69315v.2695zM11.9226 50.3724h-.3238v1.5995h1.1207v-.2721h-.7969v-1.3274zM15.3175 50.3724h-.3238v1.5995h.3238v-1.5995zM18.6365 51.4405l-.6552-1.0681h-.3137v1.5995h.301v-1.0451l.6426 1.0451h.3213v-1.5995h-.296v1.0681zM21.6367 51.2675h.7969v-.2721h-.7969v-.3509h.8576v-.2721h-1.1814v1.5995h1.2143v-.2721h-.8905v-.4323zM28.9122 51.0031h-.6299v-.6307h-.3213v1.5995h.3213v-.6993h.6299v.6993h.3213v-1.5995h-.3213v.6307zM31.9302 51.2675h.7994v-.2721h-.7994v-.3509h.8601v-.2721h-1.1814v1.5995h1.2118v-.2721h-.8905v-.4323zM36.0233 51.2676c.2783-.0432.4199-.1907.4199-.445.0081-.068-.0022-.137-.0298-.1996-.0276-.0627-.0715-.1167-.127-.1564-.1449-.0728-.3065-.1052-.468-.0941h-.678v1.5995h.3213v-.6688h.0632c.0685-.0042.137.008.1999.0356.0469.029.086.0691.1138.117l.3491.5086h.3845l-.1948-.3128c-.0861-.1544-.2074-.286-.3541-.384zm-.3238-.2212h-.2378v-.4018h.253c.1102-.0089.2211.004.3263.0381.0234.0207.0418.0464.054.0752.0122.0288.0177.06.0163.0913-.0015.0312-.0099.0618-.0247.0893-.0148.0275-.0356.0514-.0608.0697-.1056.0324-.2161.0453-.3263.0382zM39.1095 51.2675h.7969v-.2721h-.7969v-.3509h.8601v-.2721h-1.1839v1.5995H40v-.2721h-.8905v-.4323z" fill="#AFB1B8"/></svg>